<svg id="visual" viewBox="0 0 960 200" width="960" height="200" xmlns="http://www.w3.org/2000/svg" xmlns:xlink="http://www.w3.org/1999/xlink" version="1.1"><rect x="0" y="0" width="960" height="200" fill="#ffffff"></rect><path d="M0 97L16 95.2C32 93.3 64 89.7 96 94.2C128 98.7 160 111.3 192 113.2C224 115 256 106 288 105.8C320 105.7 352 114.3 384 118.2C416 122 448 121 480 115C512 109 544 98 576 97C608 96 640 105 672 106.5C704 108 736 102 768 100.5C800 99 832 102 864 105C896 108 928 111 944 112.5L960 114L960 0L944 0C928 0 896 0 864 0C832 0 800 0 768 0C736 0 704 0 672 0C640 0 608 0 576 0C544 0 512 0 480 0C448 0 416 0 384 0C352 0 320 0 288 0C256 0 224 0 192 0C160 0 128 0 96 0C64 0 32 0 16 0L0 0Z" fill="#3c99f0"></path><path d="M0 96L16 97C32 98 64 100 96 96.5C128 93 160 84 192 84.5C224 85 256 95 288 93C320 91 352 77 384 71C416 65 448 67 480 69.2C512 71.3 544 73.7 576 73.7C608 73.7 640 71.3 672 76.2C704 81 736 93 768 96C800 99 832 93 864 86.5C896 80 928 73 944 69.5L960 66L960 0L944 0C928 0 896 0 864 0C832 0 800 0 768 0C736 0 704 0 672 0C640 0 608 0 576 0C544 0 512 0 480 0C448 0 416 0 384 0C352 0 320 0 288 0C256 0 224 0 192 0C160 0 128 0 96 0C64 0 32 0 16 0L0 0Z" fill="#3f7fc2"></path><path d="M0 82L16 80.3C32 78.7 64 75.3 96 76.8C128 78.3 160 84.7 192 88C224 91.3 256 91.7 288 89.2C320 86.7 352 81.3 384 79.2C416 77 448 78 480 80.3C512 82.7 544 86.3 576 84.2C608 82 640 74 672 71.8C704 69.7 736 73.3 768 73.2C800 73 832 69 864 69.7C896 70.3 928 75.7 944 78.3L960 81L960 0L944 0C928 0 896 0 864 0C832 0 800 0 768 0C736 0 704 0 672 0C640 0 608 0 576 0C544 0 512 0 480 0C448 0 416 0 384 0C352 0 320 0 288 0C256 0 224 0 192 0C160 0 128 0 96 0C64 0 32 0 16 0L0 0Z" fill="#3d6696"></path><path d="M0 46L16 45.8C32 45.7 64 45.3 96 46.7C128 48 160 51 192 50.5C224 50 256 46 288 47.7C320 49.3 352 56.7 384 55.5C416 54.3 448 44.7 480 44.3C512 44 544 53 576 55.3C608 57.7 640 53.3 672 54.3C704 55.3 736 61.7 768 59.3C800 57 832 46 864 40.3C896 34.7 928 34.3 944 34.2L960 34L960 0L944 0C928 0 896 0 864 0C832 0 800 0 768 0C736 0 704 0 672 0C640 0 608 0 576 0C544 0 512 0 480 0C448 0 416 0 384 0C352 0 320 0 288 0C256 0 224 0 192 0C160 0 128 0 96 0C64 0 32 0 16 0L0 0Z" fill="#384e6d"></path><path d="M0 46L16 41.3C32 36.7 64 27.3 96 26C128 24.7 160 31.3 192 37.3C224 43.3 256 48.7 288 50.7C320 52.7 352 51.3 384 45.5C416 39.7 448 29.3 480 26.2C512 23 544 27 576 29.3C608 31.7 640 32.3 672 35.7C704 39 736 45 768 45C800 45 832 39 864 33.8C896 28.7 928 24.3 944 22.2L960 20L960 0L944 0C928 0 896 0 864 0C832 0 800 0 768 0C736 0 704 0 672 0C640 0 608 0 576 0C544 0 512 0 480 0C448 0 416 0 384 0C352 0 320 0 288 0C256 0 224 0 192 0C160 0 128 0 96 0C64 0 32 0 16 0L0 0Z" fill="#2e3746"></path><path d="M0 5L16 6.7C32 8.3 64 11.7 96 15.3C128 19 160 23 192 21.2C224 19.3 256 11.7 288 9.5C320 7.3 352 10.7 384 13.3C416 16 448 18 480 19.7C512 21.3 544 22.7 576 20.5C608 18.3 640 12.7 672 13C704 13.3 736 19.7 768 21.3C800 23 832 20 864 18.2C896 16.3 928 15.7 944 15.3L960 15L960 0L944 0C928 0 896 0 864 0C832 0 800 0 768 0C736 0 704 0 672 0C640 0 608 0 576 0C544 0 512 0 480 0C448 0 416 0 384 0C352 0 320 0 288 0C256 0 224 0 192 0C160 0 128 0 96 0C64 0 32 0 16 0L0 0Z" fill="#222222"></path></svg>