<svg id="visual" viewBox="0 0 960 200" width="960" height="200" xmlns="http://www.w3.org/2000/svg" xmlns:xlink="http://www.w3.org/1999/xlink" version="1.1"><rect x="0" y="0" width="960" height="200" fill="#ffffff"></rect><path d="M0 106L16 110C32 114 64 122 96 121.8C128 121.7 160 113.3 192 111C224 108.7 256 112.3 288 116.7C320 121 352 126 384 125.2C416 124.3 448 117.7 480 112.7C512 107.7 544 104.3 576 102.7C608 101 640 101 672 98.8C704 96.7 736 92.3 768 89.5C800 86.7 832 85.3 864 86.8C896 88.3 928 92.7 944 94.8L960 97L960 0L944 0C928 0 896 0 864 0C832 0 800 0 768 0C736 0 704 0 672 0C640 0 608 0 576 0C544 0 512 0 480 0C448 0 416 0 384 0C352 0 320 0 288 0C256 0 224 0 192 0C160 0 128 0 96 0C64 0 32 0 16 0L0 0Z" fill="#222222"></path><path d="M0 96L16 97C32 98 64 100 96 97.2C128 94.3 160 86.7 192 84.3C224 82 256 85 288 82.2C320 79.3 352 70.7 384 68.5C416 66.3 448 70.7 480 75.2C512 79.7 544 84.3 576 83.5C608 82.7 640 76.3 672 75.5C704 74.7 736 79.3 768 79.5C800 79.7 832 75.3 864 77.7C896 80 928 89 944 93.5L960 98L960 0L944 0C928 0 896 0 864 0C832 0 800 0 768 0C736 0 704 0 672 0C640 0 608 0 576 0C544 0 512 0 480 0C448 0 416 0 384 0C352 0 320 0 288 0C256 0 224 0 192 0C160 0 128 0 96 0C64 0 32 0 16 0L0 0Z" fill="#2e3746"></path><path d="M0 85L16 83.3C32 81.7 64 78.3 96 79.5C128 80.7 160 86.3 192 89.2C224 92 256 92 288 91.5C320 91 352 90 384 86C416 82 448 75 480 70.2C512 65.3 544 62.7 576 62C608 61.3 640 62.7 672 67.7C704 72.7 736 81.3 768 79.3C800 77.3 832 64.7 864 64.2C896 63.7 928 75.3 944 81.2L960 87L960 0L944 0C928 0 896 0 864 0C832 0 800 0 768 0C736 0 704 0 672 0C640 0 608 0 576 0C544 0 512 0 480 0C448 0 416 0 384 0C352 0 320 0 288 0C256 0 224 0 192 0C160 0 128 0 96 0C64 0 32 0 16 0L0 0Z" fill="#384e6d"></path><path d="M0 55L16 55.3C32 55.7 64 56.3 96 59.3C128 62.3 160 67.7 192 65.7C224 63.7 256 54.3 288 50.3C320 46.3 352 47.7 384 47.2C416 46.7 448 44.3 480 41.7C512 39 544 36 576 40.8C608 45.7 640 58.3 672 61.5C704 64.7 736 58.3 768 52.8C800 47.3 832 42.7 864 45.5C896 48.3 928 58.7 944 63.8L960 69L960 0L944 0C928 0 896 0 864 0C832 0 800 0 768 0C736 0 704 0 672 0C640 0 608 0 576 0C544 0 512 0 480 0C448 0 416 0 384 0C352 0 320 0 288 0C256 0 224 0 192 0C160 0 128 0 96 0C64 0 32 0 16 0L0 0Z" fill="#3d6696"></path><path d="M0 21L16 24.8C32 28.7 64 36.3 96 36.8C128 37.3 160 30.7 192 29.2C224 27.7 256 31.3 288 33C320 34.7 352 34.3 384 31.5C416 28.7 448 23.3 480 21.8C512 20.3 544 22.7 576 23C608 23.3 640 21.7 672 23.3C704 25 736 30 768 35C800 40 832 45 864 43.3C896 41.7 928 33.3 944 29.2L960 25L960 0L944 0C928 0 896 0 864 0C832 0 800 0 768 0C736 0 704 0 672 0C640 0 608 0 576 0C544 0 512 0 480 0C448 0 416 0 384 0C352 0 320 0 288 0C256 0 224 0 192 0C160 0 128 0 96 0C64 0 32 0 16 0L0 0Z" fill="#3f7fc2"></path><path d="M0 7L16 9.7C32 12.3 64 17.7 96 18C128 18.3 160 13.7 192 11.2C224 8.7 256 8.3 288 9.7C320 11 352 14 384 15.3C416 16.7 448 16.3 480 18.3C512 20.3 544 24.7 576 22.8C608 21 640 13 672 13.5C704 14 736 23 768 23C800 23 832 14 864 14.3C896 14.7 928 24.3 944 29.2L960 34L960 0L944 0C928 0 896 0 864 0C832 0 800 0 768 0C736 0 704 0 672 0C640 0 608 0 576 0C544 0 512 0 480 0C448 0 416 0 384 0C352 0 320 0 288 0C256 0 224 0 192 0C160 0 128 0 96 0C64 0 32 0 16 0L0 0Z" fill="#3c99f0"></path></svg>