<svg id="visual" viewBox="0 0 960 200" width="960" height="200" xmlns="http://www.w3.org/2000/svg" xmlns:xlink="http://www.w3.org/1999/xlink" version="1.1"><rect x="0" y="0" width="960" height="200" fill="#ffffff"></rect><path d="M0 138L80 172L160 163L240 144L320 133L400 140L480 136L560 162L640 156L720 151L800 131L880 156L960 129L960 0L880 0L800 0L720 0L640 0L560 0L480 0L400 0L320 0L240 0L160 0L80 0L0 0Z" fill="#3c99f0"></path><path d="M0 128L80 92L160 108L240 109L320 80L400 101L480 126L560 112L640 96L720 132L800 98L880 98L960 96L960 0L880 0L800 0L720 0L640 0L560 0L480 0L400 0L320 0L240 0L160 0L80 0L0 0Z" fill="#3e6ea5"></path><path d="M0 69L80 60L160 96L240 100L320 47L400 47L480 70L560 80L640 80L720 69L800 73L880 69L960 89L960 0L880 0L800 0L720 0L640 0L560 0L480 0L400 0L320 0L240 0L160 0L80 0L0 0Z" fill="#35465f"></path><path d="M0 18L80 37L160 16L240 46L320 52L400 21L480 36L560 56L640 45L720 20L800 35L880 23L960 35L960 0L880 0L800 0L720 0L640 0L560 0L480 0L400 0L320 0L240 0L160 0L80 0L0 0Z" fill="#222222"></path></svg>