<svg id="visual" viewBox="0 0 960 300" width="960" height="300" xmlns="http://www.w3.org/2000/svg" xmlns:xlink="http://www.w3.org/1999/xlink" version="1.1"><rect x="0" y="0" width="960" height="300" fill="#ffffff"></rect><path d="M0 85L22.8 79C45.7 73 91.3 61 137 69C182.7 77 228.3 105 274 117.8C319.7 130.7 365.3 128.3 411.2 113.8C457 99.3 503 72.7 548.8 71.5C594.7 70.3 640.3 94.7 686 101C731.7 107.3 777.3 95.7 823 88.3C868.7 81 914.3 78 937.2 76.5L960 75L960 0L937.2 0C914.3 0 868.7 0 823 0C777.3 0 731.7 0 686 0C640.3 0 594.7 0 548.8 0C503 0 457 0 411.2 0C365.3 0 319.7 0 274 0C228.3 0 182.7 0 137 0C91.3 0 45.7 0 22.8 0L0 0Z" fill="#3c99f0" stroke-linecap="round" stroke-linejoin="miter"></path></svg>