<svg id="visual" viewBox="0 0 960 200" width="960" height="200" xmlns="http://www.w3.org/2000/svg" xmlns:xlink="http://www.w3.org/1999/xlink" version="1.1"><rect x="0" y="0" width="960" height="200" fill="#ffffff"></rect><path d="M0 131L16 125.3C32 119.7 64 108.3 96 99.8C128 91.3 160 85.7 192 84.8C224 84 256 88 288 94.2C320 100.3 352 108.7 384 112.5C416 116.3 448 115.7 480 119.8C512 124 544 133 576 125.2C608 117.3 640 92.7 672 82.7C704 72.7 736 77.3 768 89.3C800 101.3 832 120.7 864 121.8C896 123 928 106 944 97.5L960 89L960 0L944 0C928 0 896 0 864 0C832 0 800 0 768 0C736 0 704 0 672 0C640 0 608 0 576 0C544 0 512 0 480 0C448 0 416 0 384 0C352 0 320 0 288 0C256 0 224 0 192 0C160 0 128 0 96 0C64 0 32 0 16 0L0 0Z" fill="#3c99f0"></path><path d="M0 113L16 106C32 99 64 85 96 78.7C128 72.3 160 73.7 192 72.5C224 71.3 256 67.7 288 69.2C320 70.7 352 77.3 384 78C416 78.7 448 73.3 480 70.3C512 67.3 544 66.7 576 65.7C608 64.7 640 63.3 672 71.8C704 80.3 736 98.7 768 103.7C800 108.7 832 100.3 864 101.5C896 102.7 928 113.3 944 118.7L960 124L960 0L944 0C928 0 896 0 864 0C832 0 800 0 768 0C736 0 704 0 672 0C640 0 608 0 576 0C544 0 512 0 480 0C448 0 416 0 384 0C352 0 320 0 288 0C256 0 224 0 192 0C160 0 128 0 96 0C64 0 32 0 16 0L0 0Z" fill="#3f7fc2"></path><path d="M0 81L16 82.8C32 84.7 64 88.3 96 83.3C128 78.3 160 64.7 192 63.8C224 63 256 75 288 83.8C320 92.7 352 98.3 384 97.5C416 96.7 448 89.3 480 81.3C512 73.3 544 64.7 576 61.7C608 58.7 640 61.3 672 69.3C704 77.3 736 90.7 768 88.5C800 86.3 832 68.7 864 60.7C896 52.7 928 54.3 944 55.2L960 56L960 0L944 0C928 0 896 0 864 0C832 0 800 0 768 0C736 0 704 0 672 0C640 0 608 0 576 0C544 0 512 0 480 0C448 0 416 0 384 0C352 0 320 0 288 0C256 0 224 0 192 0C160 0 128 0 96 0C64 0 32 0 16 0L0 0Z" fill="#3d6696"></path><path d="M0 39L16 41.7C32 44.3 64 49.7 96 50.7C128 51.7 160 48.3 192 47.3C224 46.3 256 47.7 288 49.8C320 52 352 55 384 53.8C416 52.7 448 47.3 480 48.3C512 49.3 544 56.7 576 62.5C608 68.3 640 72.7 672 67.2C704 61.7 736 46.3 768 45.2C800 44 832 57 864 65.3C896 73.7 928 77.3 944 79.2L960 81L960 0L944 0C928 0 896 0 864 0C832 0 800 0 768 0C736 0 704 0 672 0C640 0 608 0 576 0C544 0 512 0 480 0C448 0 416 0 384 0C352 0 320 0 288 0C256 0 224 0 192 0C160 0 128 0 96 0C64 0 32 0 16 0L0 0Z" fill="#384e6d"></path><path d="M0 31L16 35.5C32 40 64 49 96 49.8C128 50.7 160 43.3 192 39.2C224 35 256 34 288 33.8C320 33.7 352 34.3 384 34C416 33.7 448 32.3 480 34C512 35.7 544 40.3 576 45.2C608 50 640 55 672 50.8C704 46.7 736 33.3 768 26.8C800 20.3 832 20.7 864 27.3C896 34 928 47 944 53.5L960 60L960 0L944 0C928 0 896 0 864 0C832 0 800 0 768 0C736 0 704 0 672 0C640 0 608 0 576 0C544 0 512 0 480 0C448 0 416 0 384 0C352 0 320 0 288 0C256 0 224 0 192 0C160 0 128 0 96 0C64 0 32 0 16 0L0 0Z" fill="#2e3746"></path><path d="M0 22L16 23.8C32 25.7 64 29.3 96 31.7C128 34 160 35 192 33C224 31 256 26 288 25.5C320 25 352 29 384 29.8C416 30.7 448 28.3 480 28.3C512 28.3 544 30.7 576 30.7C608 30.7 640 28.3 672 29.3C704 30.3 736 34.7 768 34.5C800 34.3 832 29.7 864 24.5C896 19.3 928 13.7 944 10.8L960 8L960 0L944 0C928 0 896 0 864 0C832 0 800 0 768 0C736 0 704 0 672 0C640 0 608 0 576 0C544 0 512 0 480 0C448 0 416 0 384 0C352 0 320 0 288 0C256 0 224 0 192 0C160 0 128 0 96 0C64 0 32 0 16 0L0 0Z" fill="#222222"></path></svg>