<svg id="visual" viewBox="0 0 960 200" width="960" height="200" xmlns="http://www.w3.org/2000/svg" xmlns:xlink="http://www.w3.org/1999/xlink" version="1.1"><rect x="0" y="0" width="960" height="200" fill="#ffffff"></rect><path d="M0 118L80 118L160 146L240 153L320 163L400 141L480 134L560 175L640 156L720 153L800 144L880 108L960 139L960 0L880 0L800 0L720 0L640 0L560 0L480 0L400 0L320 0L240 0L160 0L80 0L0 0Z" fill="#222222"></path><path d="M0 118L80 78L160 121L240 134L320 100L400 80L480 129L560 91L640 98L720 132L800 115L880 97L960 110L960 0L880 0L800 0L720 0L640 0L560 0L480 0L400 0L320 0L240 0L160 0L80 0L0 0Z" fill="#35465f"></path><path d="M0 100L80 54L160 60L240 48L320 88L400 62L480 46L560 95L640 98L720 89L800 50L880 79L960 92L960 0L880 0L800 0L720 0L640 0L560 0L480 0L400 0L320 0L240 0L160 0L80 0L0 0Z" fill="#3e6ea5"></path><path d="M0 24L80 31L160 32L240 37L320 46L400 37L480 44L560 16L640 37L720 18L800 60L880 29L960 17L960 0L880 0L800 0L720 0L640 0L560 0L480 0L400 0L320 0L240 0L160 0L80 0L0 0Z" fill="#3c99f0"></path></svg>