<svg id="visual" viewBox="0 0 960 200" width="960" height="200" xmlns="http://www.w3.org/2000/svg" xmlns:xlink="http://www.w3.org/1999/xlink" version="1.1"><rect x="0" y="0" width="960" height="200" fill="#ffffff"></rect><path d="M0 112L80 159L160 129L240 118L320 162L400 148L480 122L560 172L640 143L720 166L800 125L880 166L960 128L960 0L880 0L800 0L720 0L640 0L560 0L480 0L400 0L320 0L240 0L160 0L80 0L0 0Z" fill="#3c99f0"></path><path d="M0 95L80 103L160 113L240 132L320 113L400 93L480 119L560 107L640 92L720 119L800 98L880 135L960 133L960 0L880 0L800 0L720 0L640 0L560 0L480 0L400 0L320 0L240 0L160 0L80 0L0 0Z" fill="#3e6ea5"></path><path d="M0 53L80 94L160 70L240 47L320 56L400 89L480 98L560 66L640 50L720 50L800 77L880 92L960 96L960 0L880 0L800 0L720 0L640 0L560 0L480 0L400 0L320 0L240 0L160 0L80 0L0 0Z" fill="#35465f"></path><path d="M0 41L80 51L160 25L240 31L320 24L400 60L480 49L560 37L640 42L720 62L800 19L880 42L960 37L960 0L880 0L800 0L720 0L640 0L560 0L480 0L400 0L320 0L240 0L160 0L80 0L0 0Z" fill="#222222"></path></svg>